# xmcd CD database file
#
# Track frame offsets:
#	150
#	15210
#	29160
#	41692
#	53822
#	70447
#	88047
#	99157
#	111537
#	129222
#	143197
#	156472
#	174977
#	189827
#	204357
#	221757
#	240805
#	255792
#	271875
#	287680
#	304805
#
# Disc length: 4436 seconds
#
# Revision: 0
# Processed by: cddbd v1.5PL3 Copyright (c) Steve Scherf et al.
# Submitted via: CDex 1.51
#
DISCID=1e115215
DTITLE=Corisco do Trovão - A Explosão do Forró
DYEAR=1900
DGENRE=Forró
TTITLE0=Abertura do show
TTITLE1=Jura
TTITLE2=Por esse amor
TTITLE3=O tempo é curto
TTITLE4=Jura que me ama
TTITLE5=Amor, amor, amor
TTITLE6=Acabei de saber
TTITLE7=Em nome do prazer
TTITLE8=Vem meu amor
TTITLE9=Ciúmes
TTITLE10=Noite, noite
TTITLE11=Canalha
TTITLE12=Amante mulher
TTITLE13=Te amo demais
TTITLE14=É amor
TTITLE15=Me dá um beijo
TTITLE16=Amor descartável
TTITLE17=De corpo e alma
TTITLE18=Não consigo te esquecer
TTITLE19=Homens que eu amei
TTITLE20=Pour pourrit
EXTD=
EXTT0=
EXTT1=
EXTT2=
EXTT3=
EXTT4=
EXTT5=
EXTT6=
EXTT7=
EXTT8=
EXTT9=
EXTT10=
EXTT11=
EXTT12=
EXTT13=
EXTT14=
EXTT15=
EXTT16=
EXTT17=
EXTT18=
EXTT19=
EXTT20=
PLAYORDER=
